REM MD5 af7d1c3a04205cfb59b2856c1460d4c8
FILE "Next Demo 6 (Italy) (En,It).bin" BINARY
  TRACK 01 MODE2/2352
    INDEX 01 00:00:00
  TRACK 02 AUDIO
    INDEX 00 60:14:16
    INDEX 01 60:16:16
  TRACK 03 AUDIO
    INDEX 00 63:33:09
    INDEX 01 63:35:09
REM LEADOUT 67:06:49
